{"title":"Neighbors.2014.720p.R6.WEB-DL.x264.AC3-titohmr","uid":10407750,"size":2316931591,"categoryP":"video","categoryS":"hd___movies","magnet":"?xt=urn:btih:39a4c4791b1d384bbc641a1a364825c7a76b30d7&amp;dn=Neighbors.2014.720p.R6.WEB-DL.x264.AC3-titohmr&amp;tr=udp%3A%2F%2Ftracker.openbittorrent.com%3A80&amp;tr=udp%3A%2F%2Fopen.demonii.com%3A1337&amp;tr=udp%3A%2F%2Ftracker.coppersurfer.tk%3A6969&amp;tr=udp%3A%2F%2Fexodus.desync.com%3A6969","seeders":8,"leechers":0,"uploader":"titohmer","files":2,"time":1403480507,"description":"Title: Neighbors (2014)\nIMDB Rating: 7.1/10\nGenres: Comedy \nActors: Seth Rogen , Rose Byrne , Elise Vargas , Zoey Vargas , Brian Huskey , Ike Barinholtz , Carla Gallo , Zac Efron , Dave Franco , Halston Sage , Christopher Mintz-Plasse , Jerrod Carmichael , Craig Roberts , Ali Cobrin , Kira Sternbach\nRuntime: 97\nYear: 2014\nPlot: \nKelly and Mac are settling down in a quiet neighborhood with their newborn child| until the frat brothers move into the house next door. Teddy is the President| and\nPete is his right hand man| and they're quick to accept friendship when Kelly and Mac introduce themselves as the neighbors. Night after night| Mac asks Teddy to\nlower the fraternity's noise| even accepting the invitation to the party one evening. When Teddy goes back on his word to keep the partying down| Mac calls the\npolice to deal with the problem. The police quickly blame Mac for their presence| and the war begins. As the family feuds with the frat brothers| things get\nhilariously dangerous and the fraternity end ups on thin ice with their college. After receiving their final warning and being placed on probation| Mac and Kelly\npull a prank so ingenious that Teddy and Mac are forced to respond. All hell breaks loose| from Robert DeNiro parties to Christopher Mintz-Plasse having sex in the\nbushes| this comedy shows how... \n\nInfo:\nFormat : AVI\nFormat/Info : Audio Video Interleave\nFormat profile : OpenDML\nFile size : 2.08 GiB\nDuration : 1h 32mn\nOverall bit rate : 3 207 Kbps\nMovie name : RARBG.COM - Bad.Neighbors.2014.WEBRip.HC.XviD.MP3-RARBG\nWriting library : VirtualDub build 35491/release\nComment : RARBG.COM - Bad.Neighbors.2014.WEBRip.HC.XviD.MP3-RARBG\n\nVideo\nID : 0\nFormat : MPEG-4 Visual\nFormat profile : Simple@L5\nFormat settings, BVOP : No\nFormat settings, QPel : No\nFormat settings, GMC : No warppoints\nFormat settings, Matrix : Default (H.263)\nCodec ID : XVID\nCodec ID/Hint : XviD\nDuration : 1h 32mn\nBit rate : 2 998 Kbps\nWidth : 960 pixels\nHeight : 544 pixels\nDisplay aspect ratio : 16:9\nFrame rate : 25.000 fps\nColor space : YUV\nChroma subsampling : 4:2:0\nBit depth : 8 bits\nScan type : Progressive\nCompression mode : Lossy\nBits/(Pixel*Frame) : 0.230\nStream size : 1.94 GiB (94%)\nWriting library : Lavc55.61.100\n\nAudio\nID : 1\nFormat : MPEG Audio\nFormat version : Version 1\nFormat profile : Layer 3\nMode : Joint stereo\nCodec ID : 55\nCodec ID/Hint : MP3\nDuration : 1h 32mn\nBit rate mode : Constant\nBit rate : 192 Kbps\nChannel(s) : 2 channels\nSampling rate : 44.1 KHz\nCompression mode : Lossy\nStream size : 127 MiB (6%)\nAlignment : Aligned on interleaves\nInterleave, duration : 26 ms (0.65 video frame)\nInterleave, preload duration : 522 ms","torrent":{"xt":"urn:btih:39a4c4791b1d384bbc641a1a364825c7a76b30d7","amp;dn":"Neighbors.2014.720p.R6.WEB-DL.x264.AC3-titohmr","amp;tr":["udp%3A%2F%2Ftracker.openbittorrent.com%3A80","udp%3A%2F%2Fopen.demonii.com%3A1337","udp%3A%2F%2Ftracker.coppersurfer.tk%3A6969","udp%3A%2F%2Fexodus.desync.com%3A6969"],"infoHash":"39a4c4791b1d384bbc641a1a364825c7a76b30d7","infoHashBuffer":{"type":"Buffer","data":[57,164,196,121,27,29,56,75,188,100,26,26,54,72,37,199,167,107,48,215]},"announce":[],"urlList":[]}}